<?xml version="1.0" encoding="utf-8"?>
<svg xmlns="http://www.w3.org/2000/svg" width="1080" zoomAndPan="magnify" viewBox="0 0 810 809.999993" height="1080" preserveAspectRatio="xMidYMid meet" version="1.2">
  <defs>
    <clipPath id="32395e5753">
      <path d="M 75 0 L 735 0 C 776.421875 0 810 33.578125 810 75 L 810 735 C 810 776.421875 776.421875 810 735 810 L 75 810 C 33.578125 810 0 776.421875 0 735 L 0 75 C 0 33.578125 33.578125 0 75 0 Z M 75 0 "/>
    </clipPath>
  </defs>
  <g id="f48c618939">
    <g clip-rule="nonzero" clip-path="url(#32395e5753)">
      <rect x="0" width="810" y="0" height="809.999993" style="fill:#5170ff;fill-opacity:1;stroke:none;"/>
    </g>
    <g transform="matrix(1, 0, 0, 1, -17.216095, 5.503018)">
      <g style="fill:#ffffff;fill-opacity:1;">
        <g transform="translate(96.084315, 653.717657)">
          <path style="stroke:none" d="M 125.589844 -516.542969 L 34.4375 -516.542969 L 34.4375 -152.601562 C 34.4375 -106.683594 38.488281 -85.078125 52.667969 -60.09375 C 76.300781 -18.90625 122.214844 8.101562 170.832031 8.101562 C 226.875 8.101562 280.21875 -27.683594 298.449219 -76.976562 C 305.199219 -94.53125 309.925781 -124.914062 309.925781 -146.523438 L 309.925781 -237.003906 C 309.925781 -286.96875 305.199219 -307.226562 286.96875 -332.882812 C 266.039062 -362.59375 226.199219 -382.851562 189.0625 -382.851562 C 166.78125 -382.851562 144.496094 -376.773438 125.589844 -364.621094 Z M 172.179688 -74.949219 C 149.898438 -74.949219 133.019531 -88.453125 128.292969 -107.359375 C 126.265625 -115.460938 125.589844 -126.265625 125.589844 -142.472656 L 125.589844 -237.003906 C 125.589844 -277.515625 141.121094 -299.125 171.507812 -299.125 C 201.890625 -299.125 218.097656 -277.515625 218.097656 -237.003906 L 218.097656 -142.472656 C 218.097656 -126.265625 217.421875 -115.460938 215.394531 -107.359375 C 210.667969 -88.453125 193.113281 -74.949219 170.832031 -74.949219 Z M 172.179688 -74.949219 "/>
        </g>
      </g>
      <g style="fill:#ffffff;fill-opacity:1;">
        <g transform="translate(437.070574, 653.717657)">
          <path style="stroke:none" d="M 125.589844 0 L 125.589844 -239.027344 C 125.589844 -273.464844 136.394531 -299.796875 172.179688 -299.796875 C 187.710938 -299.796875 199.867188 -293.046875 210.667969 -278.191406 L 276.839844 -334.910156 C 250.507812 -366.644531 215.394531 -382.851562 174.882812 -382.851562 C 114.113281 -382.851562 58.746094 -344.363281 43.214844 -290.34375 C 36.460938 -268.0625 34.4375 -249.15625 34.4375 -212.019531 L 34.4375 0 Z M 125.589844 0 "/>
        </g>
      </g>
    </g>
  </g>
</svg>